# xmcd
#
# Track frame offsets: 
#        150
#        12151
#        23465
#        36829
#        49568
#        60723
#        73218
#        84910
#        96885
#        110755
#        122509
#        135180
#        146307
#        158983
#        169300
#        182025
#        192583
#        205163
#        216913
#        228544
#        240671
#        252118
#        262714
#
# Disc length: 3646 seconds
#
# Revision: 1
# Processed by: cddbd v1.5.2PL0 Copyright (c) Steve Scherf et al.
# Submitted via: ExactAudioCopy v1.1
#
DISCID=380e3c17
DTITLE=Ray Charles - The Complete Swing Time And Down Beat Recordings 
DTITLE=Disc 1
DYEAR=1996
DGENRE=R&B
TTITLE0=I Love You, I Love You (mono)
TTITLE1=Confession Blues (mono)
TTITLE2=Alone In This City (mono)
TTITLE3=Can Anyone Ask For More (mono)
TTITLE4=Let's Have A Ball (mono)
TTITLE5=Rockin' Chair Blues (mono)
TTITLE6=If I Give You My Love (mono)
TTITLE7=Can't You See Darling (mono)
TTITLE8=This Love Of Mine (mono)
TTITLE9=How Long Blues (mono)
TTITLE10=Blues Before Sunrise (mono)
TTITLE11=A Sentimental Blues (mono)
TTITLE12=You'll Never Miss The Water (mono)
TTITLE13=Ain't That Fine (mono)
TTITLE14=Don't Put All Your Dreams In One Basket (mono)
TTITLE15=Sittin' On Top Of The World (mono)
TTITLE16=I've Had My Fun (mono)
TTITLE17=See See Rider (mono)
TTITLE18=What Have I Done (mono)
TTITLE19=Honey Honey (mono)
TTITLE20=She's On The Ball (mono)
TTITLE21=The Ego Song (Sweet As Can Be) (mono)
TTITLE22=The Ego Song (Sweet As Can Be) (alt - take 3) (mono)
EXTD=
EXTT0=
EXTT1=
EXTT2=
EXTT3=
EXTT4=
EXTT5=
EXTT6=
EXTT7=
EXTT8=
EXTT9=
EXTT10=
EXTT11=
EXTT12=
EXTT13=
EXTT14=
EXTT15=
EXTT16=
EXTT17=
EXTT18=
EXTT19=
EXTT20=
EXTT21=
EXTT22=
PLAYORDER=
